#!OML:ASF X:\für Bonn\!DataBase\2005_08_12_Daniel\c3d\Daniel.ASF
:FULLY-SPECIFIED
:DEGREES
235
root 5.31841 17.0159 -2.0616 -744.611 -73.2654 736.152
lowerback 9.80408 -8.09993 4.82229
upperback 3.37259 -10.3928 0.224893
thorax -2.6997 -5.21722 -1.11146
lowerneck 12.2404 16.707 3.99728
upperneck 6.40761 22.6743 -10.4605
head 1.70765 11.3831 -3.8895
rclavicle 2.98177e-014 -2.70347e-014
rhumerus -52.5233 -14.9889 -61.4056
rradius 20.3557
rwrist 15.705
rhand -15.7839 9.02442
rfingers 7.12502
rthumb 10.4086 -20.6979
lclavicle 2.98177e-014 -2.70347e-014
lhumerus -16.8547 9.02001 77.9948
lradius 128.688
lwrist 206.106
lhand -8.06616 21.2309
lfingers 7.12502
lthumb 17.8452 50.4321
rfemur -15.5389 5.45627 15.1399
rtibia 45.8042
rfoot -20.4179 11.4612
rtoes -10.9188
lfemur -11.4036 1.05249 -15.8034
ltibia 77.1288
lfoot 4.14391 -12.2983
ltoes -23.8636
236
root 5.36281 17.0145 -2.04238 -744.431 -73.3469 736.149
lowerback 9.65558 -8.1727 5.00232
upperback 3.30445 -10.4767 0.223364
thorax -2.72654 -5.25901 -1.20947
lowerneck 12.0353 16.6812 4.02441
upperneck 6.32352 22.6495 -10.5498
head 1.72283 11.3698 -3.9019
rclavicle -7.69297e-014 1.90833e-014
rhumerus -52.1971 -15.0773 -62.3071
rradius 20.7804
rwrist 14.9045
rhand -16.3163 9.08277
rfingers 7.12502
rthumb 9.895 -20.6647
lclavicle -7.69297e-014 1.90833e-014
lhumerus -17.4192 8.84285 78.8844
lradius 128.604
lwrist 205.969
lhand -8.2551 21.2812
lfingers 7.12502
lthumb 17.6634 50.4989
rfemur -15.8336 5.69061 15.1004
rtibia 45.7432
rfoot -20.5102 11.2203
rtoes -10.9773
lfemur -10.2587 0.948075 -15.5492
ltibia 75.8732
lfoot 3.83809 -12.4813
ltoes -24.1689
237
root 5.40777 17.0162 -2.02011 -744.332 -73.4706 736.239
lowerback 9.50839 -8.21867 5.17492
upperback 3.22734 -10.5252 0.246544
thorax -2.75568 -5.28351 -1.28297
lowerneck 11.8283 16.656 3.93818
upperneck 6.22221 22.6076 -10.5965
head 1.71521 11.3458 -3.89169
rclavicle -8.23962e-014 -7.95139e-015
rhumerus -51.8075 -15.1091 -63.2019
rradius 21.2015
rwrist 14.146
rhand -16.7817 9.02409
rfingers 7.12502
rthumb 9.44597 -20.7442
lclavicle -8.23962e-014 -7.95139e-015
lhumerus -18.0186 8.72364 79.8115
lradius 128.486
lwrist 205.932
lhand -8.46772 21.3496
lfingers 7.12502
lthumb 17.4588 50.5856
rfemur -16.114 5.93361 15.0128
rtibia 45.6184
rfoot -20.5073 11.0623
rtoes -10.8608
lfemur -9.14225 0.849715 -15.3633
ltibia 74.6129
lfoot 3.56826 -12.5785
ltoes -24.4071
238
root 5.45354 17.0221 -1.99709 -744.245 -73.618 736.306
lowerback 9.40433 -8.25552 5.3614
upperback 3.1506 -10.5582 0.267953
thorax -2.80976 -5.30076 -1.36123
lowerneck 11.6474 16.6302 3.85442
upperneck 6.14474 22.5651 -10.6327
head 1.71008 11.3211 -3.88026
rclavicle -5.88403e-014 2.22639e-014
rhumerus -51.4316 -15.1011 -64.1067
rradius 21.6838
rwrist 13.3696
rhand -17.1002 8.88672
rfingers 7.12502
rthumb 9.13862 -20.8953
lclavicle -5.88403e-014 2.22639e-014
lhumerus -18.7161 8.6303 80.6897
lradius 128.418
lwrist 205.89
lhand -8.6873 21.3193
lfingers 7.12502
lthumb 17.2474 50.5739
rfemur -16.3253 6.17658 14.9265
rtibia 45.4266
rfoot -20.4349 10.9474
rtoes -10.632
lfemur -8.02958 0.749971 -15.2029
ltibia 73.3482
lfoot 3.3081 -12.6516
ltoes -24.7854
239
root 5.4998 17.03 -1.97355 -744.165 -73.7835 736.377
lowerback 9.3034 -8.282 5.53308
upperback 3.07724 -10.5789 0.300553
thorax -2.85661 -5.31206 -1.42222
lowerneck 11.4536 16.6161 3.71646
upperneck 6.04257 22.5293 -10.6383
head 1.69109 11.2992 -3.85444
rclavicle 1.21159e-013 -4.45278e-014
rhumerus -51.0514 -15.0501 -65.0348
rradius 22.2103
rwrist 12.6312
rhand -17.3766 8.68745
rfingers 7.12502
rthumb 8.87195 -21.106
lclavicle 1.21159e-013 -4.45278e-014
lhumerus -19.4647 8.54811 81.4815
lradius 128.417
lwrist 205.915
lhand -8.88245 21.2027
lfingers 7.12502
lthumb 17.0596 50.4737
rfemur -16.5193 6.44756 14.8374
rtibia 45.1785
rfoot -20.3114 10.8323
rtoes -10.4273
lfemur -6.95126 0.639971 -15.0723
ltibia 72.0957
lfoot 3.08191 -12.6654
ltoes -25.0484
